<svg width="41" height="43" viewBox="0 0 41 43" fill="none" xmlns="http://www.w3.org/2000/svg">
<g clip-path="url(#clip0_0_81)">
<path d="M7.6875 18.875C6.27813 18.875 5.125 20.0562 5.125 21.5C5.125 22.9437 6.27813 24.125 7.6875 24.125C9.09688 24.125 10.25 22.9437 10.25 21.5C10.25 20.0562 9.09688 18.875 7.6875 18.875ZM33.3125 18.875C31.9031 18.875 30.75 20.0562 30.75 21.5C30.75 22.9437 31.9031 24.125 33.3125 24.125C34.7219 24.125 35.875 22.9437 35.875 21.5C35.875 20.0562 34.7219 18.875 33.3125 18.875ZM20.5 18.875C19.0906 18.875 17.9375 20.0562 17.9375 21.5C17.9375 22.9437 19.0906 24.125 20.5 24.125C21.9094 24.125 23.0625 22.9437 23.0625 21.5C23.0625 20.0562 21.9094 18.875 20.5 18.875Z" fill="white"/>
</g>
<defs>
<clipPath id="clip0_0_81">
<rect width="41" height="42" fill="white" transform="translate(0 0.5)"/>
</clipPath>
</defs>
</svg>
